# Blender v2.93.4 OBJ File: 'Crystals.blend'
# www.blender.org
mtllib Crystals2.mtl
o Icosphere.003
v 0.465138 0.004243 0.338588
v -0.205727 0.004243 0.556569
v -0.620349 0.004246 -0.014104
v -0.193876 0.007470 -0.561707
v 0.577817 -0.007389 -0.118092
v 0.165113 0.756532 0.549849
v -0.505752 0.683213 0.344569
v -0.441550 0.502819 -0.381761
v 0.143840 0.350697 -0.531047
v 0.659443 0.420015 0.133125
v -0.099298 0.975136 0.041128
v 0.156043 0.008897 0.528636
v 0.638523 -0.004073 0.133125
v 0.231477 0.724326 0.059510
v -0.481991 0.008898 0.321328
v 0.054542 0.669566 -0.144426
v -0.421936 0.011313 -0.367512
v 0.138507 0.000605 -0.514622
v 0.686504 0.206314 0.280786
v 0.686504 0.206314 -0.014536
v 0.097456 0.397884 0.633392
v 0.374019 0.304268 0.528639
v -0.658341 0.304268 0.193202
v -0.296871 0.354789 0.512733
v -0.366331 0.255145 -0.538651
v -0.567515 0.255145 -0.261744
v 0.266677 0.174283 -0.514624
v 0.034814 0.174283 -0.589961
v 0.560893 0.457536 0.372047
v -0.196657 0.796743 0.505826
v -0.590979 0.656967 -0.014104
v -0.068880 0.381670 -0.514622
v 0.560893 0.457536 -0.105797
v 0.088679 0.932289 0.237278
v 0.483262 0.612796 0.133125
v -0.305642 0.889194 0.116619
v -0.276358 0.726245 -0.261743
v 0.098897 0.509839 -0.392725
v 0.000378 0.808527 0.074439
v 0.206624 0.614459 0.334831
v -0.042470 0.723656 0.329317
v 0.339946 1.599311 0.394846
v 0.546192 1.405243 0.655238
v 0.406648 1.769558 0.753091
v 0.033984 0.409772 -0.215619
v 0.077411 0.525998 0.148537
v -0.134609 0.457493 -0.007529
v -0.050490 1.283771 -0.484496
v -0.007063 1.399997 -0.120340
v -0.246335 1.613458 -0.363150
v 0.312654 0.529832 -0.033724
v 0.431305 0.395733 -0.063896
v 0.457471 0.357973 0.163310
v 0.329722 0.364132 0.060798
v 0.380406 0.938274 0.032131
v 0.406573 0.900514 0.259337
v 0.262403 1.081705 0.187806
v -0.295431 0.755576 0.053863
v -0.280696 0.789593 0.277038
v -0.399211 0.793173 0.169651
v -0.201484 1.280331 -0.032324
v -0.186749 1.314348 0.190850
v -0.274955 1.487222 0.055658
v 0.215928 0.398604 -0.393088
v 0.224472 0.426754 -0.265248
v 0.155751 0.424751 -0.327519
v 0.270404 0.698963 -0.462866
v 0.278948 0.727113 -0.335026
v 0.227801 0.822010 -0.419808
vt 0.083234 0.726646
vt 0.026363 0.639945
vt 0.106288 0.634701
vt 0.326479 0.858799
vt 0.197685 0.806706
vt 0.277538 0.700319
vt 0.239532 0.101442
vt 0.354955 0.049871
vt 0.336673 0.164634
vt 0.053369 0.260176
vt 0.121944 0.178750
vt 0.143523 0.267553
vt 0.000199 0.550174
vt 0.002423 0.365697
vt 0.053440 0.409846
vt 0.194492 0.687477
vt 0.405088 0.743354
vt 0.213252 0.209612
vt 0.069564 0.346728
vt 0.070240 0.572696
vt 0.283247 0.611476
vt 0.171966 0.619001
vt 0.295619 0.528568
vt 0.486335 0.605699
vt 0.368608 0.605356
vt 0.419302 0.479306
vt 0.214955 0.289224
vt 0.318858 0.276057
vt 0.252288 0.355008
vt 0.103636 0.390817
vt 0.134605 0.348368
vt 0.153725 0.405368
vt 0.130720 0.581529
vt 0.122987 0.526978
vt 0.180702 0.554701
vt 0.224947 0.507627
vt 0.218470 0.439375
vt 0.335592 0.454548
vt 0.373972 0.382514
vt 0.432035 0.265149
vt 0.486335 0.126348
vt 0.471158 0.000199
vt 0.486733 0.771649
vt 0.570826 0.837860
vt 0.703193 0.635895
vt 0.811625 0.900762
vt 0.811625 0.454572
vt 0.756330 0.661370
vt 0.711062 0.888359
vt 0.806054 0.454174
vt 0.752022 0.204444
vt 0.806054 0.000199
vt 0.486733 0.311840
vt 0.696677 0.184209
vt 0.565847 0.375145
vt 0.998854 0.273735
vt 0.934914 0.265338
vt 0.966298 0.123264
vt 0.806452 0.187974
vt 0.998854 0.000199
vt 0.932951 0.111072
vt 0.854121 0.226118
vt 0.999801 0.721533
vt 0.937397 0.713338
vt 0.968027 0.574679
vt 0.812023 0.637833
vt 0.999801 0.454572
vt 0.935482 0.562779
vt 0.858546 0.675060
vt 0.806452 0.318159
vt 0.835126 0.295582
vt 0.880262 0.364449
vt 0.917235 0.274133
vt 0.917235 0.426277
vt 0.898381 0.355763
vt 0.882945 0.278363
vt 0.699935 0.440237
vn 0.6345 -0.5357 0.5571
vn 0.0777 -0.2483 0.9656
vn -0.8614 -0.3580 0.3603
vn -0.6088 -0.3580 -0.7079
vn 0.5971 -0.4406 -0.6704
vn 0.5163 -0.3409 0.7856
vn -0.2966 0.0422 0.9541
vn -0.9803 0.0120 -0.1970
vn -0.1260 0.0046 -0.9920
vn 0.7659 -0.0805 -0.6379
vn 0.6520 0.7178 0.2442
vn -0.4713 0.8193 0.3266
vn -0.5437 0.6720 -0.5027
vn 0.0385 0.6617 -0.7488
vn 0.7240 0.6617 -0.1947
vn 0.5031 0.6193 -0.6028
vn 0.3577 0.8319 -0.4243
vn 0.4509 0.6547 -0.6067
vn 0.3556 0.6094 -0.7087
vn 0.0883 0.6233 -0.7769
vn -0.1223 0.5383 -0.8338
vn -0.4706 0.7966 -0.3795
vn -0.4734 0.7951 -0.3791
vn -0.6554 0.7485 0.1010
vn -0.2210 0.8869 0.4056
vn -0.1876 0.9425 0.2764
vn 0.0385 0.8750 0.4826
vn 0.4688 0.7375 -0.4862
vn 0.6482 0.7173 0.2555
vn 0.7240 0.6617 0.1947
vn 0.8897 0.3304 -0.3151
vn 0.7534 0.1436 -0.6417
vn 0.6172 0.3649 -0.6970
vn -0.0247 0.3304 -0.9435
vn -0.0576 0.3153 -0.9472
vn -0.1429 0.4983 -0.8551
vn -0.8663 0.2244 -0.4462
vn -0.9770 0.0677 -0.2024
vn -0.9339 0.2961 0.2003
vn -0.4948 0.1256 0.8599
vn -0.2999 0.0828 0.9504
vn -0.0906 0.2421 0.9660
vn 0.5252 0.2038 0.8262
vn 0.6270 0.0308 0.7784
vn 0.8897 0.3304 0.3151
vn 0.3066 0.1256 -0.9435
vn 0.3013 -0.2223 -0.9272
vn 0.1257 -0.3307 -0.9353
vn -0.8026 0.1256 -0.5831
vn -0.7888 -0.2223 -0.5731
vn -0.8316 -0.2915 -0.4727
vn -0.6592 -0.0346 0.7512
vn -0.6558 -0.0653 0.7521
vn -0.6473 -0.0734 0.7587
vn 0.3914 0.1381 0.9098
vn 0.2836 -0.2093 0.9358
vn 0.4851 -0.3580 0.7978
vn 0.9921 0.1256 0.0000
vn 0.9750 -0.2224 0.0000
vn 0.9087 -0.3580 -0.2148
vn 0.4688 0.7369 -0.4870
vn 0.3094 0.8239 -0.4747
vn 0.5703 0.7237 -0.3885
vn -0.1575 -0.3120 0.9369
vn -0.9157 0.4014 -0.0203
vn -0.7589 0.0632 0.6482
vn -0.8378 -0.4159 0.3536
vn -0.6198 0.1754 0.7649
vn -0.7794 -0.2518 -0.5737
vn -0.9893 -0.0540 0.1352
vn -0.7797 -0.5636 0.2729
vn -0.6198 -0.1928 0.7608
vn -0.7794 0.0376 -0.6254
vn -0.9893 -0.1098 0.0957
vn -0.7797 -0.6260 -0.0142
vn -0.6487 0.2350 0.7238
vn -0.7409 0.0224 -0.6713
vn -0.9826 0.1820 0.0371
vn -0.9189 -0.3765 0.1181
vn -0.6487 0.2819 0.7069
vn -0.7409 -0.0216 -0.6713
vn -0.9826 0.1841 0.0251
vn -0.9189 -0.3680 0.1424
vn 0.2961 0.8265 -0.4788
usemtl Material.003
s off
f 1/1/1 13/2/1 19/3/1
f 2/4/2 12/5/2 21/6/2
f 3/7/3 15/8/3 23/9/3
f 4/10/4 17/11/4 25/12/4
f 5/13/5 18/14/5 27/15/5
f 1/1/6 19/3/6 22/16/6
f 2/4/7 21/6/7 24/17/7
f 3/7/8 23/9/8 26/18/8
f 4/10/9 25/12/9 28/19/9
f 5/13/10 27/15/10 20/20/10
f 6/21/11 29/22/11 34/23/11
f 7/24/12 30/25/12 36/26/12
f 8/27/13 31/28/13 37/29/13
f 9/30/14 32/31/14 38/32/14
f 10/33/15 33/34/15 35/35/15
f 14/36/16 16/37/16 11/38/16
f 35/35/17 33/34/17 38/32/17
f 33/34/18 9/30/18 38/32/18
f 37/29/19 11/38/19 16/37/19
f 38/32/20 32/31/20 37/29/20
f 32/31/21 8/27/21 37/29/21
f 37/29/22 36/39/22 11/38/22
f 37/29/23 31/28/23 36/39/23
f 31/28/24 7/40/24 36/39/24
f 36/26/25 34/23/25 11/38/25
f 36/26/26 30/25/26 34/23/26
f 30/25/27 6/21/27 34/23/27
f 34/23/28 35/35/28 14/36/28
f 34/23/29 29/22/29 35/35/29
f 29/22/30 10/33/30 35/35/30
f 20/20/31 33/34/31 10/33/31
f 20/20/32 27/15/32 33/34/32
f 27/15/33 9/30/33 33/34/33
f 28/19/34 32/31/34 9/30/34
f 28/19/35 25/12/35 32/31/35
f 25/12/36 8/27/36 32/31/36
f 26/18/37 31/28/37 8/27/37
f 26/18/38 23/9/38 31/28/38
f 23/9/39 7/40/39 31/28/39
f 24/17/40 30/25/40 7/24/40
f 24/17/41 21/6/41 30/25/41
f 21/6/42 6/21/42 30/25/42
f 22/16/43 29/22/43 6/21/43
f 22/16/44 19/3/44 29/22/44
f 19/3/45 10/33/45 29/22/45
f 27/15/46 28/19/46 9/30/46
f 27/15/47 18/14/47 28/19/47
f 18/14/48 4/10/48 28/19/48
f 25/12/49 26/18/49 8/27/49
f 25/12/50 17/11/50 26/18/50
f 17/11/51 3/7/51 26/18/51
f 23/9/52 24/41/52 7/40/52
f 23/9/53 15/8/53 24/41/53
f 15/8/54 2/42/54 24/41/54
f 21/6/55 22/16/55 6/21/55
f 21/6/56 12/5/56 22/16/56
f 12/5/57 1/1/57 22/16/57
f 19/3/58 20/20/58 10/33/58
f 19/3/59 13/2/59 20/20/59
f 13/2/60 5/13/60 20/20/60
f 38/32/61 14/36/61 35/35/61
f 38/32/62 37/29/62 16/37/62
f 11/38/63 34/23/63 14/36/63
f 41/43/64 40/44/64 43/45/64
f 41/46/65 44/47/65 42/48/65
f 39/49/66 43/45/66 42/48/66
f 43/45/67 44/47/67 42/48/67
f 47/50/68 49/51/68 50/52/68
f 47/53/69 50/52/69 48/54/69
f 45/55/70 49/51/70 48/54/70
f 49/51/71 50/52/71 48/54/71
f 54/56/72 53/57/72 56/58/72
f 54/59/73 57/60/73 55/61/73
f 52/62/74 56/58/74 55/61/74
f 56/58/75 57/60/75 55/61/75
f 60/63/76 59/64/76 62/65/76
f 60/66/77 63/67/77 61/68/77
f 59/64/78 61/68/78 58/69/78
f 62/65/79 63/67/79 61/68/79
f 66/70/80 65/71/80 68/72/80
f 66/73/81 69/74/81 67/75/81
f 65/71/82 67/75/82 64/76/82
f 68/72/83 69/74/83 67/75/83
f 45/55/69 47/53/69 48/54/69
f 58/69/77 60/66/77 61/68/77
f 63/67/76 60/63/76 62/65/76
f 39/49/65 41/46/65 42/48/65
f 44/47/64 41/43/64 43/45/64
f 52/62/73 54/59/73 55/61/73
f 57/60/72 54/56/72 56/58/72
f 69/74/80 66/70/80 68/72/80
f 64/76/81 66/73/81 67/75/81
f 38/32/84 16/37/84 14/36/84
f 39/49/66 40/44/66 43/45/66
f 47/50/68 46/77/68 49/51/68
f 45/55/70 46/77/70 49/51/70
f 52/62/74 53/57/74 56/58/74
f 59/64/78 62/65/78 61/68/78
f 65/71/82 68/72/82 67/75/82
