# Blender v2.93.4 OBJ File: ''
# www.blender.org
mtllib Crystals1.mtl
o Icosphere.001
v 0.551026 -0.001808 0.400339
v -0.210470 -0.001809 0.647769
v -0.681105 -0.001805 0.000000
v -0.210470 -0.001809 -0.647769
v 0.551026 -0.001808 -0.400339
v 0.020424 0.323963 0.051684
v -0.445634 0.638779 0.254505
v -0.335815 0.557667 -0.328692
v 0.172802 0.557667 -0.531840
v 0.467296 0.568682 -0.028857
v -0.017879 0.935822 -0.184797
v 0.200174 0.001064 0.616062
v 0.647768 0.001066 0.000000
v -0.524056 0.001065 0.380747
v -0.524056 0.001065 -0.380747
v 0.200174 0.001064 -0.616062
v 0.451986 0.363210 0.188219
v 0.582299 0.278058 -0.193200
v 0.001464 0.222131 0.450731
v 0.228541 0.222131 0.376949
v -0.594617 0.278058 0.193200
v -0.255030 0.363210 0.417944
v -0.367493 0.278058 -0.505811
v -0.594617 0.278058 -0.193200
v 0.367493 0.278058 -0.505811
v 0.000000 0.278058 -0.625217
v 0.249363 0.319324 -0.012046
v -0.118056 0.319325 0.107335
v -0.409057 0.606757 0.000000
v -0.164350 0.606758 -0.505808
v 0.293150 0.606757 -0.312606
v 0.018876 0.700228 -0.035935
v 0.164909 0.754039 -0.213352
v -0.301886 0.754040 -0.018158
v -0.265919 0.900646 -0.303782
v 0.101570 0.900646 -0.423188
v -0.253484 0.190818 0.341120
v -0.332807 1.163200 0.462035
v -0.375516 0.186735 0.107986
v -0.401789 1.673466 0.191666
v -0.089839 0.189994 0.029422
v -0.152990 1.205314 0.150725
v -0.032791 0.190817 -0.092113
v 0.129483 0.992161 -0.045154
v 0.236670 0.186735 -0.364482
v 0.370386 1.305362 -0.262827
v 0.310191 0.189994 -0.012751
v 0.476186 1.034276 0.049951
v -0.234612 0.190817 0.044474
v -0.207038 0.992161 0.017378
v -0.224358 0.186735 -0.338526
v -0.128657 1.305362 -0.214959
v 0.069865 0.189994 -0.132243
v 0.110922 1.034275 -0.150400
v -0.002479 0.033153 0.113515
v 0.023245 0.596297 0.142372
v 0.290066 0.029070 0.190250
v 0.215601 0.792707 0.232446
v 0.159233 0.032330 0.426220
v 0.175374 0.638412 0.468110
vt 0.008142 0.239031
vt 0.070619 0.137981
vt 0.123697 0.245632
vt 0.037029 0.470830
vt 0.000184 0.357474
vt 0.091987 0.383199
vt 0.225109 0.614625
vt 0.122523 0.555396
vt 0.208493 0.521896
vt 0.459921 0.649410
vt 0.340618 0.638736
vt 0.405285 0.563221
vt 0.159949 0.060106
vt 0.272663 0.018617
vt 0.243007 0.108118
vt 0.083196 0.319562
vt 0.149764 0.436269
vt 0.299672 0.554802
vt 0.392978 0.000184
vt 0.452044 0.086716
vt 0.342161 0.085648
vt 0.160754 0.153514
vt 0.176695 0.333740
vt 0.170129 0.286980
vt 0.260643 0.316555
vt 0.226614 0.440611
vt 0.180191 0.365195
vt 0.290567 0.397698
vt 0.373190 0.471431
vt 0.281555 0.449112
vt 0.377055 0.365063
vt 0.306004 0.164677
vt 0.390792 0.175587
vt 0.328151 0.237830
vt 0.186763 0.227197
vt 0.256581 0.204261
vt 0.274995 0.257951
vt 0.333293 0.299405
vt 0.411464 0.276774
vt 0.459921 0.184979
vt 0.660120 0.272137
vt 0.758068 0.470078
vt 0.460288 0.107475
vt 0.758068 0.000184
vt 0.709906 0.256116
vt 0.544077 0.061653
vt 0.656526 0.008596
vt 0.717447 0.636077
vt 0.780479 0.470446
vt 0.780479 0.843558
vt 0.460288 0.658166
vt 0.677561 0.599990
vt 0.553538 0.746966
vt 0.648027 0.821834
vt 0.257648 0.792066
vt 0.311659 0.649778
vt 0.311659 0.998461
vt 0.000184 0.806285
vt 0.215798 0.755383
vt 0.084592 0.901244
vt 0.184241 0.965215
vt 0.953246 0.097180
vt 0.999816 0.000184
vt 0.999816 0.244982
vt 0.758436 0.046552
vt 0.918341 0.058864
vt 0.802925 0.138139
vt 0.896283 0.218598
vn 0.9014 0.3727 0.2205
vn 0.0554 0.6295 0.7750
vn -0.9243 0.0226 0.3811
vn -0.6480 0.0226 -0.7613
vn 0.5238 0.0226 -0.8516
vn 0.3180 0.5394 0.7797
vn 0.1920 0.5396 0.8198
vn -0.9554 0.2953 0.0000
vn -0.2952 0.2953 -0.9087
vn 0.7833 0.3109 -0.5383
vn 0.2658 0.2197 0.9387
vn 0.6941 0.4546 0.5581
vn -0.9470 0.2106 -0.2425
vn -0.0306 0.2961 -0.9547
vn 0.6208 0.7312 -0.2829
vn 0.7018 0.6658 0.2534
vn 0.7964 0.5816 0.1660
vn 0.7957 0.3268 -0.5100
vn -0.0563 0.9833 -0.1733
vn -0.2711 0.4799 -0.8344
vn -0.7311 0.1964 -0.6533
vn -0.3147 0.8600 0.4018
vn -0.7790 0.5922 0.2059
vn -0.8052 0.5629 -0.1865
vn 0.1372 0.5443 0.8276
vn 0.1054 0.3167 0.9427
vn 0.3582 0.2132 0.9090
vn 0.5914 0.4947 0.6368
vn 0.6323 0.4233 0.6488
vn -0.3261 0.3443 0.8804
vn 0.7563 0.5222 -0.3941
vn 0.7314 0.4609 -0.5026
vn 0.7301 0.4614 -0.5041
vn -0.0247 0.3304 -0.9435
vn -0.3035 0.1876 -0.9342
vn -0.7041 0.4352 -0.5611
vn -0.7682 0.5857 -0.2586
vn -0.8708 0.4916 0.0000
vn -0.8981 0.4014 -0.1796
vn 0.7305 0.6425 0.2314
vn 0.4720 0.8776 0.0841
vn 0.0680 0.9659 0.2497
vn 0.0880 0.9653 0.2459
vn -0.3946 0.8962 0.2028
vn -0.6305 0.5854 0.5096
vn 0.3066 0.1256 -0.9435
vn 0.3035 0.1884 -0.9340
vn 0.0768 0.0226 -0.9968
vn -0.7339 0.4209 -0.5332
vn -0.7945 0.1885 -0.5773
vn -0.9243 0.0226 -0.3811
vn -0.5658 0.0945 0.8191
vn -0.5763 0.3524 0.7373
vn -0.5996 0.3727 0.7082
vn 0.0813 0.9648 0.2501
vn 0.2197 0.7032 0.6762
vn 0.4029 0.6477 0.6466
vn 0.9375 0.2173 0.2718
vn 0.9012 0.3701 0.2253
vn 0.9698 0.0654 -0.2348
vn -0.9801 -0.0284 0.1965
vn -0.0605 0.0550 -0.9967
vn 0.7814 0.3714 0.5016
vn 0.8854 -0.0005 0.4648
vn -0.2649 0.0981 -0.9593
vn -0.8776 -0.1290 0.4616
vn -0.7622 0.1484 -0.6301
vn 0.9227 -0.0760 -0.3779
vn -0.2695 0.6807 0.6812
vn -0.2254 -0.0114 0.9742
vn 0.9641 -0.1747 -0.1999
vn -0.6977 0.1819 -0.6929
vn -0.9765 0.1044 -0.1887
vn 0.3375 0.0748 -0.9384
vn 0.3517 0.4994 0.7918
vn 0.5020 0.0120 0.8648
vn 0.5738 -0.0455 -0.8177
vn -0.9991 0.0335 -0.0271
vn 0.3495 0.0856 -0.9330
vn 0.9720 0.0826 0.2200
vn -0.7469 0.6075 0.2703
vn -0.8881 0.0170 0.4593
vn 0.8728 -0.0567 0.4847
vn 0.2540 0.0379 -0.9665
vn 0.8654 0.0083 0.5010
vn -0.2622 -0.0201 0.9648
vn 0.4671 -0.0037 0.8842
vn -0.9058 -0.0052 0.4237
usemtl Material.001
s off
f 1/1/1 13/2/1 17/3/1
f 2/4/2 12/5/2 19/6/2
f 3/7/3 14/8/3 21/9/3
f 4/10/4 15/11/4 23/12/4
f 5/13/5 16/14/5 25/15/5
f 1/1/6 17/3/6 20/16/6
f 2/4/7 19/6/7 22/17/7
f 3/7/8 21/9/8 24/18/8
f 4/19/9 23/20/9 26/21/9
f 5/13/10 25/15/10 18/22/10
f 6/23/11 27/24/11 32/25/11
f 7/26/12 28/27/12 34/28/12
f 8/29/13 29/30/13 35/31/13
f 9/32/14 30/33/14 36/34/14
f 10/35/15 31/36/15 33/37/15
f 33/37/16 36/34/16 11/38/16
f 33/37/17 31/36/17 36/34/17
f 31/36/18 9/32/18 36/34/18
f 36/34/19 35/39/19 11/38/19
f 36/34/20 30/33/20 35/39/20
f 30/33/21 8/40/21 35/39/21
f 35/31/22 34/28/22 11/38/22
f 35/31/23 29/30/23 34/28/23
f 29/30/24 7/26/24 34/28/24
f 34/28/25 32/25/25 11/38/25
f 34/28/26 28/27/26 32/25/26
f 28/27/27 6/23/27 32/25/27
f 32/25/28 33/37/28 11/38/28
f 32/25/29 27/24/29 33/37/29
f 27/24/30 10/35/30 33/37/30
f 18/22/31 31/36/31 10/35/31
f 18/22/32 25/15/32 31/36/32
f 25/15/33 9/32/33 31/36/33
f 26/21/34 30/33/34 9/32/34
f 26/21/35 23/20/35 30/33/35
f 23/20/36 8/40/36 30/33/36
f 24/18/37 29/30/37 8/29/37
f 24/18/38 21/9/38 29/30/38
f 21/9/39 7/26/39 29/30/39
f 22/17/40 28/27/40 7/26/40
f 22/17/41 19/6/41 28/27/41
f 19/6/42 6/23/42 28/27/42
f 20/16/43 27/24/43 6/23/43
f 20/16/44 17/3/44 27/24/44
f 17/3/45 10/35/45 27/24/45
f 25/15/46 26/21/46 9/32/46
f 25/15/47 16/14/47 26/21/47
f 16/14/48 4/19/48 26/21/48
f 23/12/49 24/18/49 8/29/49
f 23/12/50 15/11/50 24/18/50
f 15/11/51 3/7/51 24/18/51
f 21/9/52 22/17/52 7/26/52
f 21/9/53 14/8/53 22/17/53
f 14/8/54 2/4/54 22/17/54
f 19/6/55 20/16/55 6/23/55
f 19/6/56 12/5/56 20/16/56
f 12/5/57 1/1/57 20/16/57
f 17/3/58 18/22/58 10/35/58
f 17/3/59 13/2/59 18/22/59
f 13/2/60 5/13/60 18/22/60
f 38/41/61 40/42/61 39/43/61
f 39/44/62 40/42/62 42/45/62
f 42/45/63 40/42/63 38/41/63
f 42/45/64 37/46/64 41/47/64
f 41/47/65 39/44/65 42/45/65
f 37/46/66 38/41/66 39/43/66
f 44/48/67 46/49/67 45/50/67
f 45/51/68 46/49/68 48/52/68
f 48/52/69 46/49/69 44/48/69
f 47/53/70 44/48/70 43/54/70
f 47/53/71 45/51/71 48/52/71
f 43/54/72 44/48/72 45/50/72
f 50/55/73 52/56/73 51/57/73
f 51/58/74 52/56/74 54/59/74
f 54/59/75 52/56/75 50/55/75
f 53/60/76 50/55/76 49/61/76
f 53/60/77 51/58/77 54/59/77
f 49/61/78 50/55/78 51/57/78
f 56/62/79 58/63/79 57/64/79
f 57/65/80 58/63/80 60/66/80
f 60/66/81 58/63/81 56/62/81
f 59/67/82 56/62/82 55/68/82
f 59/67/83 57/65/83 60/66/83
f 55/68/84 56/62/84 57/64/84
f 42/45/85 38/41/85 37/46/85
f 47/53/86 48/52/86 44/48/86
f 53/60/87 54/59/87 50/55/87
f 59/67/88 60/66/88 56/62/88
