# Blender v2.93.4 OBJ File: ''
# www.blender.org
mtllib ExitTree.mtl
o Cylinder
v -0.379227 -0.070520 -1.490327
v -0.285722 9.359479 -1.131146
v 0.488094 -0.070520 -1.463498
v 0.372568 9.359479 -1.110783
v 1.203227 -0.070520 -0.972019
v 0.915347 9.359479 -0.737754
v 1.539120 -0.070520 -0.171930
v 1.170288 9.359479 -0.130494
v 1.389132 -0.070520 0.682745
v 1.056448 9.359479 0.518198
v 0.629040 -0.065829 0.242069
v 0.609970 9.359479 1.002365
v -0.220204 -0.071298 0.463152
v -0.027391 9.359479 1.168289
v -0.863497 -0.070520 1.269169
v -0.653279 9.359479 0.963289
v -1.411196 -0.070520 0.596122
v -1.068978 9.359479 0.452452
v -1.508072 -0.070520 -0.266190
v -1.142506 9.359479 -0.202036
v -1.123369 -0.070520 -1.043988
v -0.850520 9.359479 -0.792378
v -0.379227 1.665795 -1.490327
v 0.567368 0.799676 -1.352629
v 1.145171 0.875261 -1.087433
v 1.539120 0.716685 -0.171930
v 1.389132 0.789808 0.682745
v 0.800881 1.190124 1.320653
v -0.038867 1.190124 1.539264
v -0.863497 0.587794 1.269169
v -1.411196 0.773920 0.596122
v -1.508072 1.665795 -0.266190
v -1.123369 1.665795 -1.043988
v 1.464126 1.168839 0.255407
v 3.901421 -0.070520 0.598293
v 2.570223 0.301126 0.422605
v 2.576243 -0.070520 0.445728
v 2.538746 0.549160 0.659397
v 2.486913 0.306349 0.817996
v 2.501249 -0.070520 0.873066
v 0.629040 0.439333 0.242069
v -0.220204 0.439333 0.463152
v 0.204418 1.076784 0.352610
v 0.873463 0.555999 1.160915
v 0.936676 -0.066082 1.110397
v -0.243313 -0.061053 1.639376
v -0.218372 0.680564 1.541903
v 0.384464 1.271056 1.434798
v 0.020062 1.025627 1.529662
v -0.119175 0.856874 0.436851
v 0.734067 1.026065 1.343786
v 0.514985 0.857233 0.271761
v 0.848044 0.559646 1.292616
v 0.904864 -0.070441 1.247798
v -0.154244 -0.039607 1.719025
v -0.131523 0.559646 1.630154
v 0.408934 1.200948 1.536141
v 0.082119 0.980834 1.621220
v 0.722477 0.981227 1.454516
v 0.883685 0.644290 1.256065
v 0.740587 1.074633 1.422530
v 0.402018 1.274613 1.510669
v -0.199561 0.644290 1.578746
v -0.221918 -0.058734 1.709370
v 0.072896 1.080418 1.578786
v 0.960612 -0.072177 1.206013
v -1.137346 0.680857 0.932645
v -1.279398 0.413156 0.744687
v -1.000422 0.343212 1.100907
v -1.570643 -0.044064 2.601256
v -1.771697 -0.050515 1.784117
v -1.678800 0.193092 1.803388
v -1.538613 0.182667 1.984059
v -1.489695 -0.041399 2.110983
v -1.176596 -0.038868 1.690076
v -1.269517 0.262939 1.542483
v -1.479099 0.303124 1.274037
v -1.591447 -0.060518 1.190119
v -1.608707 0.246651 1.893723
v -1.394054 0.412376 1.456059
v 1.090297 3.119323 0.534940
v 0.629395 3.139006 1.034750
v -0.295236 3.248403 -1.167691
v 0.384322 3.248403 -1.146671
v 0.944638 3.248403 -0.761590
v 1.207815 3.161431 -0.134710
v -1.103797 3.017312 0.467070
v -1.179701 3.248403 -0.208564
v -0.878281 3.248403 -0.817979
v -0.674668 2.974321 0.994411
v -0.028559 3.063790 1.206034
v -0.271290 6.217830 -1.075708
v 1.005099 6.153203 0.492800
v 0.580504 6.163058 0.953238
v 0.354737 6.217830 -1.056343
v 0.870914 6.217830 -0.701596
v 1.113360 6.174285 -0.124098
v -1.016157 6.102130 0.430277
v -1.086082 6.217830 -0.192134
v -0.808406 6.217830 -0.753543
v -0.620832 6.080606 0.916077
v -0.025620 6.125400 1.111030
v 0.845660 1.094101 -1.217758
v 1.203227 0.511790 -0.972019
v 0.488094 0.511790 -1.463498
v 2.157898 -0.070520 -2.556191
v 1.496509 -0.070520 -1.804389
v 1.138943 -0.070520 -2.050129
v 1.317726 0.511790 -1.927259
v 1.236218 0.331216 -2.037543
v 1.190063 0.201827 -2.082647
v 1.523308 0.202648 -1.850668
v 1.484420 0.385063 -1.887401
vt 0.818372 0.202448
vt 0.551961 0.255282
vt 0.554074 0.201119
vt 0.818280 0.256663
vt 0.550462 0.309942
vt 0.818019 0.365350
vt 0.546005 0.364871
vt 0.817909 0.419726
vt 0.544217 0.419974
vt 0.545630 0.474901
vt 0.818201 0.528490
vt 0.543747 0.529570
vt 0.818299 0.582831
vt 0.541874 0.583711
vt 0.546019 0.636861
vt 0.818403 0.637146
vt 0.558266 0.688849
vt 0.492049 0.872212
vt 0.422107 0.908670
vt 0.488257 0.854079
vt 0.818234 0.094318
vt 0.556688 0.147926
vt 0.559623 0.095829
vt 0.134849 0.885506
vt 0.208730 0.918684
vt 0.176532 0.954295
vt 0.172773 0.094418
vt 0.025266 0.137755
vt 0.037762 0.068547
vt 0.187734 0.026518
vt 0.050926 0.000177
vt 0.103596 0.702364
vt 0.053132 0.784461
vt 0.037787 0.716499
vt 0.072271 0.692780
vt 0.075652 0.580923
vt 0.114671 0.562778
vt 0.076247 0.637011
vt 0.101227 0.559246
vt 0.073352 0.427182
vt 0.109431 0.493781
vt 0.057960 0.484750
vt 0.342513 0.885431
vt 0.323308 0.787022
vt 0.366884 0.879138
vt 0.054446 0.287735
vt 0.067425 0.356750
vt 0.005488 0.353899
vt 0.482015 0.838567
vt 0.399430 0.835121
vt 0.470298 0.817679
vt 0.161402 0.161281
vt 0.083377 0.226879
vt 0.060423 0.215088
vt 0.323038 0.907926
vt 0.399076 0.999823
vt 0.307730 0.936426
vt 0.399076 0.879722
vt 0.395791 0.784814
vt 0.242879 0.835356
vt 0.217112 0.892649
vt 0.096784 0.500045
vt 0.088189 0.876465
vt 0.140339 0.866412
vt 0.114683 0.889521
vt 0.137601 0.838891
vt 0.216758 0.784814
vt 0.216758 0.862648
vt 0.091361 0.971598
vt 0.000177 0.955831
vt 0.041556 0.836154
vt 0.134164 0.970674
vt 0.843358 0.478148
vt 0.839726 0.513970
vt 0.832455 0.515750
vt 0.830836 0.541202
vt 0.883078 0.665967
vt 0.847684 0.612234
vt 0.886679 0.660812
vt 0.828996 0.567413
vt 0.836504 0.571576
vt 0.837187 0.610753
vt 0.881803 0.415701
vt 0.851480 0.475363
vt 0.840295 0.467300
vt 0.825479 0.573619
vt 0.832412 0.609962
vt 0.818757 0.540390
vt 0.877583 0.669544
vt 0.828364 0.510182
vt 0.893954 0.174053
vt 0.854852 0.221471
vt 0.840232 0.221160
vt 0.837889 0.257598
vt 0.829347 0.290570
vt 0.828281 0.254539
vt 0.832261 0.325623
vt 0.818757 0.291303
vt 0.857839 0.357408
vt 0.841458 0.321350
vt 0.850386 0.365952
vt 0.899733 0.402295
vt 0.891410 0.410831
vt 0.008554 0.589012
vt 0.024342 0.644985
vt 0.059818 0.657178
vt 0.818757 0.083174
vt 0.868765 0.085420
vt 0.853432 0.110234
vt 0.929325 0.106109
vt 0.907806 0.173699
vt 0.907835 0.104399
vt 0.895181 0.120327
vt 0.899897 0.110692
vt 0.886938 0.138032
vt 0.881600 0.072006
vt 0.929290 0.053373
vt 0.895853 0.058075
vt 0.885551 0.009716
vt 0.929325 0.000177
vt 0.857850 0.021936
vt 0.840644 0.050773
vt 0.272937 0.422949
vt 0.295018 0.180797
vt 0.314699 0.065580
vt 0.284571 0.662872
vt 0.187758 0.753020
vt 0.083519 0.278909
vt 0.276710 0.361907
vt 0.285763 0.301561
vt 0.104632 0.254561
vt 0.289775 0.241331
vt 0.104573 0.392094
vt 0.272794 0.605600
vt 0.089574 0.669827
vt 0.273589 0.545261
vt 0.118346 0.527597
vt 0.303736 0.122081
vt 0.313446 0.715950
vt 0.276025 0.484273
vt 0.511446 0.874226
vt 0.546449 0.784814
vt 0.546449 0.881383
vt 0.523555 0.875957
vt 0.493948 0.953681
vt 0.467016 0.952750
vt 0.543914 0.955744
vt 0.409522 0.880764
vt 0.818228 0.310984
vt 0.818135 0.474112
vt 0.818104 0.691611
vt 0.434860 0.938590
vt 0.818403 0.148343
vt 0.000177 0.481705
vt 0.004298 0.431310
vt 0.276533 0.796112
vt 0.008630 0.285626
vt 0.013725 0.207343
vt 0.119293 0.785596
vt 0.825140 0.540873
vt 0.886679 0.419714
vt 0.874035 0.411184
vt 0.899733 0.182527
vn 0.0309 -0.0175 -0.9994
vn 0.5663 -0.0175 -0.8240
vn 0.9214 -0.0172 -0.3881
vn 0.9849 -0.0171 0.1723
vn 0.7349 -0.0171 0.6780
vn 0.2529 -0.0170 0.9673
vn -0.3101 -0.0168 0.9506
vn -0.7759 -0.0168 0.6306
vn -0.9939 -0.0169 0.1085
vn 0.6228 0.7565 -0.1994
vn -0.8962 -0.0175 -0.4433
vn -0.5143 -0.0175 -0.8574
vn -0.5164 -0.8238 0.2338
vn -0.5144 0.0000 -0.8576
vn -0.8964 0.0000 -0.4433
vn -0.9937 0.0000 0.1116
vn -0.7481 0.0000 0.6636
vn -0.4030 0.1466 0.9034
vn 0.0891 -0.0262 0.9957
vn 0.7002 -0.0980 0.7072
vn 0.1267 0.5234 0.8426
vn 0.9220 0.0000 -0.3871
vn 0.9425 -0.0362 0.3321
vn 0.3580 0.2481 -0.9002
vn 0.2795 0.6813 -0.6765
vn 0.1142 -0.0599 -0.9917
vn 0.1904 0.1490 0.9703
vn -0.1223 0.0000 0.9925
vn 0.2596 0.4887 0.8330
vn 0.5664 0.6056 -0.5590
vn 0.5112 -0.0451 -0.8583
vn 0.5964 -0.1312 0.7919
vn 0.2519 0.0000 0.9677
vn -0.9557 -0.1190 0.2693
vn 0.9714 -0.2319 0.0502
vn 0.9998 0.0000 0.0196
vn 0.5675 -0.8215 0.0546
vn -0.9009 -0.3609 0.2410
vn -0.8101 -0.0432 -0.5847
vn 0.3924 0.2290 0.8908
vn 0.1813 -0.1510 -0.9718
vn 0.0231 -0.3901 -0.9205
vn 0.3981 -0.2208 -0.8904
vn -0.6883 -0.0233 -0.7250
vn -0.9694 -0.1191 0.2146
vn 0.5714 -0.4199 -0.7051
vn 0.5844 -0.7761 0.2371
vn 0.9537 -0.0840 -0.2887
vn 0.4037 0.7634 -0.5043
vn -0.8537 -0.4087 0.3228
vn -0.6180 0.1228 0.7765
vn -0.4830 0.2627 0.8353
vn -0.3402 0.7329 0.5892
vn -0.5968 -0.7201 -0.3540
vn 0.9588 0.2138 0.1869
vn 0.9705 0.0802 0.2272
vn -0.5126 0.0000 0.8587
vn -0.7756 0.0000 0.6312
vn 0.7249 0.4696 0.5039
vn -0.9166 0.3319 0.2229
vn 0.3584 0.8701 0.3383
vn 0.9425 0.2948 0.1572
vn 0.4932 0.7054 0.5090
vn -0.9009 0.3404 -0.2691
vn -0.6872 0.7181 -0.1100
vn -0.9013 0.3313 -0.2791
vn -0.8068 0.5601 -0.1880
vn 0.6151 0.5371 0.5772
vn 0.7123 0.4572 0.5326
vn -0.7810 0.5618 0.2729
vn 0.7698 0.1383 0.6231
vn -0.5042 0.1981 -0.8406
vn -0.8786 0.1981 -0.4346
vn -0.9551 0.1457 0.2580
vn 0.9187 0.1302 -0.3728
vn 0.4893 0.1591 -0.8575
vn 0.2311 0.0987 -0.9679
vn 0.9467 0.1399 0.2902
vn -0.3966 0.1359 0.9079
vn -0.7502 0.1339 0.6475
vn 0.2053 0.1703 0.9638
vn -0.5141 0.0307 -0.8572
vn -0.8959 0.0307 -0.4431
vn -0.9921 0.0296 0.1216
vn -0.7741 0.0294 0.6323
vn -0.3148 0.0294 0.9487
vn 0.2486 0.0298 0.9681
vn 0.7354 0.0301 0.6770
vn 0.9842 0.0301 0.1746
vn 0.9231 0.0303 -0.3833
vn 0.5661 0.0307 -0.8237
vn 0.0309 0.0307 -0.9991
vn -0.1969 0.5742 -0.7947
vn -0.4447 -0.0234 -0.8954
vn 0.7651 0.2799 0.5798
vn -0.3057 0.4088 -0.8599
vn -0.4791 0.4364 -0.7616
vn -0.3313 0.5962 -0.7313
vn -0.6691 0.0370 -0.7423
vn 0.9385 0.2313 0.2563
vn 0.5960 0.8011 0.0545
vn 0.7503 0.0382 0.6600
vn 0.9219 -0.0175 -0.3870
vn 0.9848 -0.0173 0.1728
vn 0.7350 -0.0172 0.6778
vn 0.2519 -0.0172 0.9676
vn -0.3112 -0.0170 0.9502
vn -0.7755 -0.0169 0.6311
vn -0.9936 -0.0175 0.1116
vn 0.6325 0.7498 -0.1945
vn -0.5194 -0.8214 0.2355
vn -0.7789 -0.0266 0.6265
vn 0.2346 0.0273 0.9717
vn 0.6869 0.0108 0.7267
vn 0.6799 0.0000 0.7333
vn 0.1650 0.7233 0.6705
vn 0.9197 0.0225 -0.3919
vn 0.9396 0.0000 0.3423
vn 0.0309 0.0000 -0.9995
vn -0.1671 0.1363 0.9765
vn 0.5624 0.6153 -0.5523
vn 0.4995 0.0000 -0.8663
vn 0.2690 0.0262 0.9628
vn -0.9426 0.0000 0.3339
vn 0.8223 -0.5688 -0.0169
vn 0.9994 -0.0329 0.0057
vn 0.5706 -0.8196 0.0522
vn -0.9211 -0.2712 0.2794
vn -0.7499 0.0304 -0.6608
vn 0.4163 0.3318 0.8465
vn 0.4433 -0.1774 -0.8787
vn -0.0026 -0.3270 -0.9450
vn 0.4866 -0.3039 -0.8190
vn -0.5997 0.0028 -0.8002
vn -0.9651 -0.1171 0.2341
vn 0.8075 -0.5044 -0.3058
vn 0.4954 -0.8655 -0.0740
vn 0.8441 -0.0977 -0.5271
vn 0.4735 0.8679 -0.1502
vn -0.7811 -0.4136 0.4677
vn -0.6783 0.1329 0.7227
vn -0.6204 0.4514 0.6413
vn 0.9600 0.2149 0.1793
vn 0.9795 0.0750 0.1870
vn -0.4021 0.1326 0.9060
vn 0.7229 0.4518 0.5227
vn 0.3314 0.8719 0.3604
vn -0.8905 0.3614 -0.2763
vn -0.6087 0.7934 0.0019
vn -0.7575 0.6517 -0.0372
vn 0.5361 0.7104 0.4559
vn 0.7115 0.4731 0.5196
vn 0.7286 0.1617 0.6655
vn -0.9653 0.1939 0.1748
vn 0.9206 0.1284 -0.3687
vn 0.3424 0.1041 -0.9338
vn 0.5603 0.1469 -0.8152
vn 0.0303 0.1981 -0.9797
vn 0.9905 0.1337 0.0323
vn 0.9705 0.1601 0.1804
vn -0.3277 0.1672 0.9299
vn -0.7623 0.1408 0.6318
vn 0.2903 0.1639 0.9428
vn 0.2293 0.1750 0.9575
vn -0.9926 0.0306 0.1172
vn -0.7747 0.0295 0.6317
vn -0.3131 0.0298 0.9492
vn 0.2501 0.0301 0.9678
vn 0.7351 0.0301 0.6773
vn 0.9843 0.0302 0.1738
vn 0.9224 0.0307 -0.3849
vn -0.4832 0.4273 -0.7641
vn -0.3109 0.6228 -0.7180
vn -0.6615 0.0000 -0.7500
vn 0.9347 0.2501 0.2525
usemtl Material.001
s off
f 2/1/1 95/2/1 92/3/1
f 4/4/2 96/5/2 95/2/2
f 96/5/3 8/6/3 97/7/3
f 97/7/4 10/8/4 93/9/4
f 10/8/5 94/10/5 93/9/5
f 94/10/6 14/11/6 102/12/6
f 102/12/7 16/13/7 101/14/7
f 16/13/8 98/15/8 101/14/8
f 18/16/9 99/17/9 98/15/9
f 109/18/10 25/19/10 113/20/10
f 20/21/11 100/22/11 99/23/11
f 100/22/12 2/1/12 92/3/12
f 43/24/13 51/25/13 48/26/13
f 33/27/14 1/28/14 21/29/14
f 32/30/15 21/29/15 19/31/15
f 31/32/16 19/33/16 17/34/16
f 68/35/17 31/32/17 17/34/17
f 47/36/18 29/37/18 30/38/18
f 49/39/19 29/37/19 47/36/19
f 27/40/20 28/41/20 44/42/20
f 38/43/21 27/44/21 39/45/21
f 104/46/22 26/47/22 7/48/22
f 112/49/23 5/50/23 107/51/23
f 23/52/24 24/53/24 105/54/24
f 36/55/25 38/43/25 35/56/25
f 37/57/26 36/55/26 35/56/26
f 40/58/27 35/56/27 39/45/27
f 9/59/28 39/45/28 27/44/28
f 35/56/29 38/43/29 39/45/29
f 26/60/30 38/43/30 36/55/30
f 7/61/31 36/55/31 37/57/31
f 28/41/32 51/62/32 44/42/32
f 42/63/33 52/64/33 50/65/33
f 41/66/34 45/67/34 44/68/34
f 50/65/35 47/69/35 42/63/35
f 42/63/36 46/70/36 13/71/36
f 50/65/37 48/26/37 49/72/37
f 52/64/38 44/68/38 51/25/38
f 60/73/39 59/74/39 61/75/39
f 61/75/40 57/76/40 59/74/40
f 64/77/41 56/78/41 55/79/41
f 65/80/42 57/76/42 58/81/42
f 63/82/43 58/81/43 56/78/43
f 66/83/44 53/84/44 60/73/44
f 44/85/45 66/83/45 60/73/45
f 49/86/46 63/82/46 47/87/46
f 48/88/47 65/80/47 49/86/47
f 46/89/48 63/82/48 64/77/48
f 48/88/49 61/75/49 51/90/49
f 51/90/50 60/73/50 61/75/50
f 46/91/51 56/92/51 47/93/51
f 58/94/52 47/93/52 56/92/52
f 57/95/53 49/96/53 58/94/53
f 51/97/54 57/95/54 48/98/54
f 53/99/55 51/97/55 59/100/55
f 44/101/56 54/102/56 45/103/56
f 46/104/57 30/38/57 15/105/57
f 30/38/58 69/106/58 15/105/58
f 15/107/59 76/108/59 75/109/59
f 71/110/60 70/111/60 72/112/60
f 70/111/61 73/113/61 79/114/61
f 70/111/62 74/115/62 73/113/62
f 79/114/63 76/108/63 80/116/63
f 78/117/64 72/112/64 77/118/64
f 72/112/65 80/116/65 77/118/65
f 78/117/66 68/119/66 17/120/66
f 77/118/67 67/121/67 68/119/67
f 80/116/68 69/122/68 67/121/68
f 75/109/69 73/113/69 74/115/69
f 72/112/70 70/111/70 79/114/70
f 81/123/71 28/41/71 27/40/71
f 33/27/72 83/124/72 23/52/72
f 88/125/73 33/27/73 32/30/73
f 87/126/74 32/127/74 31/32/74
f 25/128/75 86/129/75 26/47/75
f 85/130/76 25/128/76 103/131/76
f 23/52/77 84/132/77 24/53/77
f 81/123/78 27/40/78 34/133/78
f 29/37/79 90/134/79 30/38/79
f 90/134/80 31/32/80 67/135/80
f 91/136/81 29/37/81 48/137/81
f 100/22/82 83/124/82 89/138/82
f 99/23/83 89/138/83 88/125/83
f 98/15/84 88/139/84 87/126/84
f 101/14/85 87/126/85 90/134/85
f 91/136/86 101/14/86 90/134/86
f 82/140/87 102/12/87 91/136/87
f 93/9/88 82/140/88 81/123/88
f 86/129/89 93/9/89 81/123/89
f 85/130/90 97/7/90 86/129/90
f 95/2/91 85/130/91 84/132/91
f 92/3/92 84/132/92 83/124/92
f 110/141/93 109/18/93 106/142/93
f 108/143/94 111/144/94 106/142/94
f 112/49/95 106/142/95 113/20/95
f 111/144/96 110/141/96 106/142/96
f 105/145/97 110/141/97 111/144/97
f 24/146/98 109/18/98 110/141/98
f 3/147/99 111/144/99 108/143/99
f 104/148/100 113/20/100 25/19/100
f 106/142/101 109/18/101 113/20/101
f 106/142/102 112/49/102 107/51/102
f 2/1/1 4/4/1 95/2/1
f 4/4/2 6/149/2 96/5/2
f 96/5/103 6/149/103 8/6/103
f 97/7/104 8/6/104 10/8/104
f 10/8/105 12/150/105 94/10/105
f 94/10/106 12/150/106 14/11/106
f 102/12/107 14/11/107 16/13/107
f 16/13/108 18/16/108 98/15/108
f 18/16/109 20/151/109 99/17/109
f 109/18/110 103/152/110 25/19/110
f 20/21/11 22/153/11 100/22/11
f 100/22/12 22/153/12 2/1/12
f 43/24/111 52/64/111 51/25/111
f 33/27/14 23/52/14 1/28/14
f 32/30/15 33/27/15 21/29/15
f 31/32/16 32/127/16 19/33/16
f 68/35/112 67/135/112 31/32/112
f 49/39/113 48/137/113 29/37/113
f 45/154/114 9/155/114 44/42/114
f 9/155/115 27/40/115 44/42/115
f 38/43/116 34/156/116 27/44/116
f 7/48/22 5/157/22 104/46/22
f 104/46/117 25/128/117 26/47/117
f 112/49/118 104/148/118 5/50/118
f 3/158/119 1/28/119 105/54/119
f 1/28/119 23/52/119 105/54/119
f 9/59/120 40/58/120 39/45/120
f 26/60/121 34/156/121 38/43/121
f 7/61/122 26/60/122 36/55/122
f 28/41/123 48/137/123 51/62/123
f 13/71/33 11/159/33 42/63/33
f 11/159/33 41/66/33 42/63/33
f 41/66/33 52/64/33 42/63/33
f 52/64/33 43/24/33 50/65/33
f 41/66/124 11/159/124 45/67/124
f 50/65/125 49/72/125 47/69/125
f 42/63/126 47/69/126 46/70/126
f 50/65/127 43/24/127 48/26/127
f 52/64/128 41/66/128 44/68/128
f 60/73/129 53/84/129 59/74/129
f 61/75/130 62/160/130 57/76/130
f 64/77/131 63/82/131 56/78/131
f 65/80/132 62/160/132 57/76/132
f 63/82/133 65/80/133 58/81/133
f 66/83/134 54/161/134 53/84/134
f 44/85/135 45/162/135 66/83/135
f 49/86/136 65/80/136 63/82/136
f 48/88/137 62/160/137 65/80/137
f 46/89/138 47/87/138 63/82/138
f 48/88/139 62/160/139 61/75/139
f 51/90/140 44/85/140 60/73/140
f 46/91/141 55/163/141 56/92/141
f 58/94/142 49/96/142 47/93/142
f 57/95/53 48/98/53 49/96/53
f 51/97/54 59/100/54 57/95/54
f 53/99/143 44/101/143 51/97/143
f 44/101/144 53/99/144 54/102/144
f 46/104/145 47/36/145 30/38/145
f 30/38/58 67/135/58 69/106/58
f 15/107/146 69/122/146 76/108/146
f 79/114/147 73/113/147 76/108/147
f 78/117/148 71/110/148 72/112/148
f 72/112/149 79/114/149 80/116/149
f 78/117/64 77/118/64 68/119/64
f 77/118/150 80/116/150 67/121/150
f 80/116/151 76/108/151 69/122/151
f 75/109/152 76/108/152 73/113/152
f 81/123/153 82/140/153 28/41/153
f 33/27/72 89/138/72 83/124/72
f 88/125/73 89/138/73 33/27/73
f 87/126/154 88/139/154 32/127/154
f 25/128/155 85/130/155 86/129/155
f 103/131/156 24/53/156 84/132/156
f 84/132/157 85/130/157 103/131/157
f 23/52/158 83/124/158 84/132/158
f 34/133/159 26/47/159 86/129/159
f 86/129/160 81/123/160 34/133/160
f 29/37/161 91/136/161 90/134/161
f 67/135/80 30/38/80 90/134/80
f 90/134/162 87/126/162 31/32/162
f 48/137/163 28/41/163 82/140/163
f 82/140/164 91/136/164 48/137/164
f 100/22/82 92/3/82 83/124/82
f 99/23/83 100/22/83 89/138/83
f 98/15/165 99/17/165 88/139/165
f 101/14/166 98/15/166 87/126/166
f 91/136/167 102/12/167 101/14/167
f 82/140/168 94/10/168 102/12/168
f 93/9/169 94/10/169 82/140/169
f 86/129/170 97/7/170 93/9/170
f 85/130/171 96/5/171 97/7/171
f 95/2/91 96/5/91 85/130/91
f 92/3/92 95/2/92 84/132/92
f 105/145/172 24/146/172 110/141/172
f 24/146/173 103/152/173 109/18/173
f 3/147/174 105/145/174 111/144/174
f 104/148/175 112/49/175 113/20/175
