# Blender v2.91.0 OBJ File: 'Rock3.blend'
# www.blender.org
o rock.002_Cube.003
v -1.845457 0.446138 -1.103447
v -1.844972 0.184331 -1.140842
v -1.870178 0.444425 -1.840106
v -1.854278 0.180427 -1.786032
v -1.250242 0.391329 -1.179473
v -1.368925 0.068380 -1.184228
v -1.241381 0.410907 -1.800566
v -1.375182 0.091013 -1.672649
v -1.911733 0.535549 -1.404326
v -1.545702 0.474703 -1.116474
v -1.713049 0.537743 -1.315314
v -1.533411 0.475703 -1.816326
v -1.259608 0.448047 -1.601860
v -2.024488 0.205020 -1.531125
v -1.980185 0.458662 -1.669599
v -1.161692 0.282210 -1.697450
v -1.161795 0.225594 -1.127521
v -1.093005 0.257598 -1.397045
v -1.933710 0.504350 -1.255612
v -1.860720 0.327127 -1.095507
v -1.960449 0.159989 -1.652487
v -1.882789 0.323249 -1.863771
v -1.696958 0.468966 -1.809035
v -1.622591 0.119139 -1.752859
v -1.211928 0.356680 -1.760594
v -1.182603 0.422004 -1.688313
v -1.343269 0.041544 -1.424821
v -1.201821 0.311375 -1.119259
v -1.408846 0.424625 -1.136039
v -1.607685 0.107263 -1.126713
v -1.926148 0.500758 -1.535766
v -1.658627 0.457809 -1.055225
v -1.791983 0.545172 -1.366706
v -1.647501 0.521416 -1.255380
v -1.403977 0.434170 -1.863601
v -1.252262 0.429735 -1.401772
v -1.429259 0.482135 -1.709045
v -1.958933 0.172388 -1.331524
v -1.920403 0.471792 -1.758274
v -2.045738 0.343927 -1.614468
v -1.253049 0.195831 -1.727973
v -1.243600 0.150526 -1.113576
v -1.106678 0.238612 -1.294158
v -1.102002 0.269358 -1.502244
v -2.018492 0.329627 -1.772739
v -1.523792 0.321451 -1.880903
v -1.149563 0.151358 -1.402561
v -1.472629 0.286404 -1.002355
v -1.777048 0.532772 -1.207189
v -1.716027 0.055039 -1.445835
v -1.318024 0.456718 -1.791051
v -1.635453 0.511528 -1.512273
v -2.017791 0.380096 -1.360320
v -1.111070 0.347624 -1.443869
vt 0.375000 0.231254
vt 0.375000 0.248815
vt 0.498233 0.221056
vt 0.625000 0.127024
vt 0.494444 0.173395
vt 0.491415 0.278703
vt 0.625000 0.271339
vt 0.375000 0.260680
vt 0.375000 0.283612
vt 0.462790 0.387884
vt 0.630208 0.372459
vt 0.512855 0.508003
vt 0.666667 0.458333
vt 0.415471 0.505756
vt 0.452548 0.538392
vt 0.371137 0.403413
vt 0.344092 0.469092
vt 0.375000 0.314553
vt 0.454326 0.604274
vt 0.520900 0.632206
vt 0.666667 0.791667
vt 0.642789 0.626906
vt 0.480722 0.718703
vt 0.533372 0.743148
vt 0.459436 0.634170
vt 0.469796 0.662942
vt 0.437187 0.735997
vt 0.365711 0.759290
vt 0.373839 0.779030
vt 0.476968 0.841973
vt 0.630208 0.880208
vt 0.500000 1.000000
vt 0.625000 1.000000
vt 0.375000 0.902869
vt 0.375000 1.000000
vt 0.375000 0.805737
vt 0.182671 0.641161
vt 0.125000 0.615470
vt 0.125000 0.680904
vt 0.206822 0.656718
vt 0.187958 0.688315
vt 0.230087 0.677137
vt 0.219246 0.750000
vt 0.125000 0.750000
vt 0.777152 0.624566
vt 0.875000 0.560982
vt 0.875000 0.500000
vt 0.755208 0.494792
vt 0.875000 0.685982
vt 0.875000 0.621964
vt 0.875000 0.750000
vt 0.755208 0.755208
vt 0.280932 0.496137
vt 0.209702 0.500000
vt 0.274724 0.551826
vt 0.309140 0.529993
vt 0.330743 0.582329
vt 0.357512 0.553665
vt 0.159795 0.500000
vt 0.125000 0.500000
vt 0.125000 0.500236
vt 0.225237 0.603664
vt 0.343085 0.751161
vt 0.343254 0.641432
vt 0.296176 0.750000
vt 0.125000 0.556140
vt 0.125000 0.500472
vt 0.375000 0.000000
vt 0.375000 0.069707
vt 0.474500 0.102011
vt 0.625000 0.063892
vt 0.625000 0.000000
vt 0.500000 0.000000
vt 0.375000 0.139414
vt 0.375000 0.192187
vt 0.412770 0.622100
vt 0.625000 0.191559
vn -0.7301 0.5456 -0.4114
vn -0.9615 -0.2337 -0.1444
vn -0.5018 -0.4887 -0.7137
vn -0.6494 0.5059 -0.5678
vn 0.0809 0.5117 -0.8553
vn -0.0007 -0.4782 -0.8783
vn 0.1793 -0.6144 -0.7684
vn 0.5440 -0.2981 -0.7844
vn 0.2568 -0.4792 -0.8393
vn -0.2134 0.3659 -0.9058
vn 0.7079 -0.6569 -0.2597
vn 0.5481 -0.7875 -0.2819
vn 0.4749 -0.8676 0.1474
vn 0.6797 -0.7000 0.2192
vn 0.8817 -0.4709 0.0303
vn 0.3226 0.6863 0.6519
vn 0.3874 0.0924 0.9172
vn 0.0575 -0.7000 0.7119
vn -0.1579 -0.3146 0.9360
vn -0.2544 0.0968 0.9622
vn 0.3195 0.5804 0.7491
vn -0.1361 0.9734 0.1841
vn 0.0462 0.9963 0.0731
vn 0.1958 0.9314 0.3069
vn -0.2995 0.8202 0.4875
vn -0.0247 -0.9810 -0.1926
vn -0.2028 -0.9309 -0.3037
vn -0.5293 -0.8477 0.0352
vn -0.3231 -0.9127 0.2503
vn -0.1376 -0.9859 0.0953
vn 0.2082 0.9433 -0.2587
vn 0.3424 0.7024 -0.6240
vn 0.2777 0.9598 -0.0418
vn -0.0686 0.9327 -0.3540
vn -0.0467 0.9901 -0.1323
vn 0.1748 0.9839 0.0362
vn 0.2452 0.9557 0.1629
vn 0.3503 0.9349 0.0576
vn 0.2629 0.9645 -0.0248
vn 0.0028 0.9666 -0.2562
vn -0.3911 0.9113 -0.1287
vn -0.8384 0.1192 0.5319
vn -0.8236 -0.2521 0.5080
vn -0.9355 -0.2277 0.2700
vn -0.8632 0.5043 0.0232
vn -0.8320 0.5521 -0.0549
vn 0.8734 0.1279 -0.4700
vn 0.8888 0.3685 -0.2725
vn 0.9844 0.1632 -0.0659
vn 0.8707 0.3757 0.3174
vn 0.7184 0.6401 0.2723
vn 0.5150 0.8551 0.0594
vn -0.8890 0.4163 -0.1907
vn -0.8385 -0.4755 -0.2660
vn -0.5836 -0.5930 -0.5548
vn -0.5370 0.2152 -0.8157
vn -0.0458 0.1961 -0.9795
vn -0.0433 -0.5191 -0.8536
vn 0.1749 -0.5861 -0.7911
vn 0.3729 -0.2751 -0.8862
vn 0.3730 -0.2597 -0.8908
vn -0.0569 0.3825 -0.9222
vn 0.7549 -0.5733 -0.3184
vn 0.4998 -0.8348 -0.2310
vn 0.4797 -0.8639 0.1536
vn 0.7564 -0.6222 0.2016
vn 0.8783 -0.4610 -0.1267
vn 0.2688 0.6027 0.7514
vn 0.3339 -0.1925 0.9227
vn 0.0411 -0.5905 0.8060
vn -0.2533 -0.4155 0.8736
vn -0.2278 0.0527 0.9723
vn 0.3197 0.5784 0.7505
vn -0.2061 0.9739 0.0950
vn 0.1321 0.9835 0.1234
vn 0.0224 0.9524 0.3039
vn -0.1929 0.8120 0.5509
vn -0.0408 -0.9755 -0.2161
vn -0.1906 -0.9477 -0.2559
vn -0.4205 -0.9065 0.0370
vn -0.3124 -0.9149 0.2558
vn -0.0455 -0.9833 0.1764
vn -0.0003 0.9551 -0.2964
vn 0.4562 0.8300 -0.3209
vn 0.2089 0.9777 -0.0197
vn -0.0189 0.9902 -0.1381
vn 0.0440 0.9938 -0.1023
vn 0.1851 0.9792 0.0828
vn 0.1737 0.9773 0.1211
vn 0.3833 0.9235 -0.0176
vn 0.1420 0.9870 -0.0754
vn -0.0164 0.9702 -0.2419
vn -0.0262 0.9912 -0.1297
vn -0.8385 0.1426 0.5259
vn -0.8615 -0.1782 0.4754
vn -0.9896 -0.0793 0.1201
vn -0.7319 0.6763 0.0828
vn -0.8266 0.5628 -0.0041
vn 0.9484 -0.0888 -0.3045
vn 0.9174 0.3007 -0.2607
vn 0.9431 0.2814 0.1773
vn 0.8563 0.4291 0.2873
vn 0.5286 0.8373 0.1398
vn 0.4513 0.8819 0.1363
s off
f 15/1/1 39/2/1 45/3/1
f 14/4/2 40/5/2 45/3/2
f 45/3/3 22/6/3 4/7/3
f 45/3/4 39/2/4 3/8/4
f 3/8/5 23/9/5 46/10/5
f 24/11/6 4/7/6 22/6/6
f 41/12/7 8/13/7 24/11/7
f 25/14/8 16/15/8 41/12/8
f 35/16/9 7/17/9 25/14/9
f 12/18/10 35/16/10 46/10/10
f 41/12/11 16/15/11 44/19/11
f 8/13/12 41/12/12 47/20/12
f 6/21/13 27/22/13 47/20/13
f 17/23/14 42/24/14 47/20/14
f 18/25/15 43/26/15 47/20/15
f 28/27/16 5/28/16 29/29/16
f 17/23/17 28/27/17 48/30/17
f 30/31/18 6/21/18 42/24/18
f 20/32/19 2/33/19 30/31/19
f 32/34/20 1/35/20 20/32/20
f 29/29/21 10/36/21 32/34/21
f 33/37/22 9/38/22 19/39/22
f 11/40/23 33/37/23 49/41/23
f 34/42/24 49/41/24 32/43/24
f 49/41/25 19/39/25 1/44/25
f 8/13/26 27/22/26 50/45/26
f 21/46/27 4/47/27 24/48/27
f 38/49/28 14/50/28 21/46/28
f 2/51/29 38/49/29 50/45/29
f 27/22/30 6/21/30 30/52/30
f 35/53/31 12/54/31 37/55/31
f 7/17/32 35/53/32 51/56/32
f 13/57/33 26/58/33 51/56/33
f 23/59/34 3/60/34 39/61/34
f 12/54/35 23/59/35 52/62/35
f 13/57/36 37/55/36 52/62/36
f 29/63/37 5/28/37 36/64/37
f 34/42/38 10/65/38 29/63/38
f 11/40/39 34/42/39 52/62/39
f 31/66/40 9/38/40 33/37/40
f 39/61/41 15/67/41 31/66/41
f 1/68/42 19/69/42 53/70/42
f 38/71/43 2/72/43 20/73/43
f 14/4/44 38/71/44 53/70/44
f 15/1/45 40/5/45 53/70/45
f 9/74/46 31/75/46 53/70/46
f 25/14/47 7/17/47 26/58/47
f 16/15/48 25/14/48 54/76/48
f 18/25/49 44/19/49 54/76/49
f 28/27/50 17/23/50 43/26/50
f 5/28/51 28/27/51 54/76/51
f 13/57/52 36/64/52 54/76/52
f 15/1/53 45/3/53 40/5/53
f 14/4/54 45/3/54 21/77/54
f 45/3/55 4/7/55 21/77/55
f 45/3/56 3/8/56 22/6/56
f 3/8/57 46/10/57 22/6/57
f 24/11/58 22/6/58 46/10/58
f 41/12/59 24/11/59 46/10/59
f 25/14/60 41/12/60 46/10/60
f 35/16/61 25/14/61 46/10/61
f 12/18/62 46/10/62 23/9/62
f 41/12/63 44/19/63 47/20/63
f 8/13/64 47/20/64 27/22/64
f 6/21/65 47/20/65 42/24/65
f 17/23/66 47/20/66 43/26/66
f 18/25/67 47/20/67 44/19/67
f 28/27/68 29/29/68 48/30/68
f 17/23/69 48/30/69 42/24/69
f 30/31/70 42/24/70 48/30/70
f 20/32/71 30/31/71 48/30/71
f 32/34/72 20/32/72 48/30/72
f 29/29/73 32/34/73 48/30/73
f 33/37/74 19/39/74 49/41/74
f 11/40/75 49/41/75 34/42/75
f 34/42/76 32/43/76 10/65/76
f 49/41/77 1/44/77 32/43/77
f 8/13/78 50/45/78 24/48/78
f 21/46/79 24/48/79 50/45/79
f 38/49/80 21/46/80 50/45/80
f 2/51/81 50/45/81 30/52/81
f 27/22/82 30/52/82 50/45/82
f 35/53/83 37/55/83 51/56/83
f 7/17/84 51/56/84 26/58/84
f 13/57/85 51/56/85 37/55/85
f 23/59/86 39/61/86 52/62/86
f 12/54/87 52/62/87 37/55/87
f 13/57/88 52/62/88 36/64/88
f 29/63/89 36/64/89 52/62/89
f 34/42/90 29/63/90 52/62/90
f 11/40/91 52/62/91 33/37/91
f 31/66/92 33/37/92 52/62/92
f 39/61/93 31/66/93 52/62/93
f 1/68/94 53/70/94 20/73/94
f 38/71/95 20/73/95 53/70/95
f 14/4/96 53/70/96 40/5/96
f 15/1/97 53/70/97 31/75/97
f 9/74/98 53/70/98 19/69/98
f 25/14/99 26/58/99 54/76/99
f 16/15/100 54/76/100 44/19/100
f 18/25/101 54/76/101 43/26/101
f 28/27/102 43/26/102 54/76/102
f 5/28/103 54/76/103 36/64/103
f 13/57/104 54/76/104 26/58/104
